<svg width="30" height="44" viewBox="0 0 30 44" fill="none" xmlns="http://www.w3.org/2000/svg">
<path fill-rule="evenodd" clip-rule="evenodd" d="M12.2932 1.73873C13.3943 -0.579572 16.6057 -0.57958 17.7068 1.73873L19.1302 4.7356C19.3518 5.20234 19.7723 5.51139 20.2419 5.5823L23.4246 6.06287C25.9268 6.44069 26.8449 9.573 25.1007 11.3398L22.7976 13.6725C22.4448 14.0299 22.2771 14.5539 22.3629 15.0739L22.9066 18.3678C23.3138 20.8351 20.7927 22.865 18.5233 21.6253L15.6766 20.0701C15.252 19.8381 14.748 19.8381 14.3234 20.0701L11.4767 21.6253C9.20733 22.865 6.6862 20.8351 7.09344 18.3678L7.63712 15.0739C7.72294 14.5539 7.55522 14.0299 7.20237 13.6725L4.89934 11.3398C3.15507 9.57301 4.07318 6.44069 6.5754 6.06287L9.75811 5.5823C10.2277 5.51139 10.6482 5.20234 10.8698 4.7356L12.2932 1.73873Z" fill="#EAEAEB"/>
<path fill-rule="evenodd" clip-rule="evenodd" d="M12.2932 23.7387C13.3943 21.4204 16.6057 21.4204 17.7068 23.7387L19.1302 26.7356C19.3518 27.2023 19.7723 27.5114 20.2419 27.5823L23.4246 28.0629C25.9268 28.4407 26.8449 31.573 25.1007 33.3398L22.7976 35.6725C22.4448 36.0299 22.2771 36.5539 22.3629 37.0739L22.9066 40.3678C23.3138 42.8351 20.7927 44.865 18.5233 43.6253L15.6766 42.0701C15.252 41.8381 14.748 41.8381 14.3234 42.0701L11.4767 43.6253C9.20733 44.865 6.6862 42.8351 7.09344 40.3678L7.63712 37.0739C7.72294 36.5539 7.55522 36.0299 7.20237 35.6725L4.89934 33.3398C3.15507 31.573 4.07318 28.4407 6.5754 28.0629L9.75811 27.5823C10.2277 27.5114 10.6482 27.2023 10.8698 26.7356L12.2932 23.7387Z" fill="#F8C100"/>
</svg>
