<svg width="16" height="30" viewBox="0 0 16 30" fill="none" xmlns="http://www.w3.org/2000/svg">
<path d="M7.20612 0.60274C7.456 -0.200915 8.544 -0.200913 8.79388 0.602742L9.87411 4.0769C9.98586 4.4363 10.3064 4.67964 10.668 4.67964H14.1637C14.9723 4.67964 15.3085 5.76095 14.6543 6.25764L11.8263 8.40478C11.5337 8.62691 11.4113 9.02063 11.523 9.38004L12.6032 12.8542C12.8531 13.6579 11.9729 14.3261 11.3187 13.8295L8.49065 11.6823C8.19808 11.4602 7.80192 11.4602 7.50935 11.6823L4.68129 13.8295C4.0271 14.3261 3.14688 13.6578 3.39677 12.8542L4.47699 9.38004C4.58874 9.02063 4.46632 8.62691 4.17375 8.40478L1.34569 6.25763C0.691495 5.76095 1.02771 4.67964 1.83634 4.67964H5.33201C5.69364 4.67964 6.01414 4.4363 6.12589 4.0769L7.20612 0.60274Z" fill="#EDEEF0"/>
<path d="M7.20612 15.6027C7.456 14.7991 8.544 14.7991 8.79388 15.6027L9.87411 19.0769C9.98586 19.4363 10.3064 19.6796 10.668 19.6796H14.1637C14.9723 19.6796 15.3085 20.7609 14.6543 21.2576L11.8263 23.4048C11.5337 23.6269 11.4113 24.0206 11.523 24.38L12.6032 27.8542C12.8531 28.6579 11.9729 29.3261 11.3187 28.8295L8.49065 26.6823C8.19808 26.4602 7.80192 26.4602 7.50935 26.6823L4.68129 28.8295C4.0271 29.3261 3.14688 28.6578 3.39677 27.8542L4.47699 24.38C4.58874 24.0206 4.46632 23.6269 4.17375 23.4048L1.34569 21.2576C0.691495 20.7609 1.02771 19.6796 1.83634 19.6796H5.33201C5.69364 19.6796 6.01414 19.4363 6.12589 19.0769L7.20612 15.6027Z" fill="#F8C100"/>
</svg>
